<?xml version="1.0" standalone="no"?>
<!DOCTYPE svg PUBLIC "-//W3C//DTD SVG 20010904//EN"
 "http://www.w3.org/TR/2001/REC-SVG-20010904/DTD/svg10.dtd">
<svg version="1.0" xmlns="http://www.w3.org/2000/svg"
 width="1024.000000pt" height="1024.000000pt" viewBox="0 0 1024.000000 1024.000000"
 preserveAspectRatio="xMidYMid meet">
<metadata>
Created by potrace 1.14, written by Peter Selinger 2001-2017
</metadata>
<g transform="translate(0.000000,1024.000000) scale(0.100000,-0.100000)"
fill="#000000" stroke="none">
<path d="M0 5120 l0 -5120 5120 0 5120 0 0 5120 0 5120 -5120 0 -5120 0 0
-5120z m3360 3520 c0 -64 -27 -259 -46 -335 -48 -185 -139 -386 -249 -548 -36
-54 -65 -102 -63 -107 2 -4 49 27 104 71 94 72 102 82 113 126 15 59 70 161
119 221 142 173 470 303 765 302 232 -1 479 -75 637 -192 53 -39 41 -45 -102
-50 -104 -4 -145 -9 -187 -26 -81 -32 -156 -86 -230 -165 -190 -205 -271 -258
-435 -288 -84 -15 -279 -13 -415 5 -63 9 -119 12 -125 9 -31 -19 -196 -156
-192 -160 2 -3 42 7 88 20 222 67 460 62 688 -16 175 -60 314 -158 361 -253
26 -54 18 -68 -31 -53 -76 23 -244 13 -440 -26 -182 -36 -188 -37 -370 -32
-240 7 -355 35 -476 117 -25 16 -48 30 -53 30 -16 0 -281 -294 -281 -312 0 -5
33 9 73 31 202 111 455 136 743 72 160 -35 384 -119 384 -144 0 -8 -30 -12
-98 -13 -157 -1 -303 -54 -502 -183 -118 -77 -244 -130 -370 -157 -118 -25
-319 -25 -418 0 -40 10 -74 17 -76 15 -33 -38 -196 -393 -196 -425 0 -8 30 15
67 52 154 152 369 261 620 313 162 33 511 28 489 -8 -3 -4 -32 -18 -65 -30
-95 -34 -195 -108 -360 -262 -84 -79 -181 -163 -214 -187 -96 -67 -246 -135
-459 -207 l-196 -67 -16 -86 c-24 -134 -38 -280 -34 -357 l3 -70 69 114 c82
135 200 286 282 359 174 157 378 241 579 242 l79 0 -50 -52 c-62 -64 -86 -100
-193 -288 -196 -341 -271 -414 -596 -572 -91 -44 -165 -84 -165 -89 0 -23 31
-213 50 -304 24 -116 38 -165 49 -165 5 0 14 21 21 48 20 72 97 259 132 321
127 224 277 375 476 478 117 61 142 70 142 50 0 -8 -7 -20 -15 -27 -28 -23
-83 -128 -105 -197 -13 -42 -25 -119 -30 -203 -14 -188 -32 -274 -85 -399 -79
-188 -227 -314 -385 -328 -33 -3 -63 -9 -65 -13 -6 -9 55 -151 120 -281 36
-72 150 -270 172 -298 12 -16 13 23 5 120 -23 249 42 516 175 716 45 69 169
201 211 225 l29 18 7 -68 c4 -37 18 -136 32 -221 15 -89 25 -196 26 -255 1
-277 -108 -577 -263 -726 l-52 -49 59 -72 c32 -40 123 -138 202 -218 l143
-146 -1 -420 -1 -420 -26 -27 c-27 -28 -27 -28 -162 -28 -125 0 -136 2 -158
22 -19 17 -23 32 -23 78 0 31 4 60 9 65 5 6 15 75 21 155 7 80 16 154 22 166
5 11 8 34 6 50 l-3 29 -27 -35 c-23 -30 -28 -50 -34 -120 -4 -47 -10 -90 -15
-95 -4 -6 -13 -60 -19 -120 -19 -186 -28 -195 -186 -195 -128 0 -154 10 -154
57 0 60 42 118 203 280 l160 162 -39 6 c-271 45 -476 128 -644 262 -120 97
-250 257 -226 280 4 5 101 8 214 7 175 0 224 -4 317 -23 149 -31 309 -83 434
-142 57 -27 106 -47 108 -45 2 2 -46 55 -108 117 -61 63 -138 144 -170 180
l-59 66 -142 11 c-161 13 -268 36 -384 82 -215 85 -417 266 -503 451 -39 82
-71 207 -71 276 0 65 4 66 134 23 192 -64 396 -184 565 -331 51 -45 92 -77 90
-72 -2 6 -44 94 -94 196 l-90 186 -80 30 c-130 50 -237 122 -356 240 -209 210
-363 507 -416 806 -23 130 -19 132 102 59 204 -125 408 -295 516 -430 28 -36
53 -63 56 -61 2 2 -2 57 -8 122 -9 85 -17 122 -28 131 -9 7 -44 33 -78 59
-155 115 -283 299 -346 501 -54 171 -61 237 -62 541 0 155 3 285 8 289 13 13
95 -76 166 -181 129 -189 233 -410 296 -628 19 -66 37 -122 39 -124 3 -3 7 10
10 28 3 19 13 77 22 129 30 179 31 168 -18 261 -133 249 -218 561 -218 797 0
180 50 425 132 642 30 83 45 110 56 108 19 -4 98 -175 137 -294 74 -231 99
-413 92 -676 -3 -109 -3 -198 0 -198 2 0 24 43 49 96 24 53 72 145 105 204
l60 109 -19 38 c-65 127 -112 336 -112 494 0 94 22 256 46 339 33 115 111 247
239 405 78 96 138 186 149 223 12 38 23 25 35 -42 39 -225 43 -271 38 -481 -6
-231 -22 -331 -76 -489 -17 -50 -29 -91 -27 -93 2 -2 34 32 72 74 38 43 106
116 151 163 l82 86 -26 79 c-23 70 -26 97 -27 220 0 170 22 273 89 410 63 129
125 197 319 348 100 78 188 155 215 189 25 31 49 54 53 52 4 -3 8 -27 8 -54z
m3555 -46 c23 -22 97 -83 166 -134 208 -158 296 -261 356 -420 58 -156 76
-334 49 -488 l-12 -73 81 81 82 82 6 146 c5 132 38 379 53 404 4 6 21 -17 38
-50 18 -32 63 -98 101 -146 l68 -86 60 57 c36 34 62 53 65 45 2 -6 10 -12 17
-12 20 0 190 -164 210 -203 9 -17 22 -43 29 -57 50 -95 51 -99 51 -244 0 -116
-3 -146 -17 -171 -10 -16 -18 -35 -18 -42 0 -47 -146 -232 -206 -263 -16 -8
-42 -24 -59 -36 -56 -39 -110 -61 -167 -68 -32 -4 -60 -12 -63 -17 -8 -11
-138 -12 -150 0 -6 4 -42 13 -82 20 -66 10 -133 36 -141 54 -2 4 -11 7 -19 7
-9 0 -65 49 -124 110 l-109 109 -42 -15 c-76 -26 -220 -44 -364 -44 -117 0
-168 5 -295 30 -236 47 -321 52 -484 28 -49 -7 -16 81 56 148 221 204 693 286
995 173 30 -11 60 -19 66 -17 7 3 -34 42 -91 87 -77 61 -109 81 -125 77 -21
-5 -193 -22 -291 -29 -87 -6 -243 12 -315 37 -95 34 -167 83 -252 172 -167
178 -215 216 -317 255 -44 18 -84 23 -188 27 -90 3 -133 8 -133 16 0 13 105
85 175 120 180 88 441 124 665 92 364 -54 624 -235 709 -497 19 -57 28 -70 74
-104 28 -21 63 -49 77 -61 14 -12 38 -30 55 -40 34 -22 36 -25 -48 100 -120
180 -223 419 -262 610 -21 103 -38 284 -29 316 l6 25 26 -35 c15 -19 45 -53
67 -76z m1804 -12 c45 -43 51 -53 51 -89 0 -24 -6 -46 -15 -53 -8 -7 -15 -18
-15 -24 0 -7 -10 -22 -22 -33 -22 -20 -64 -28 -129 -24 -34 1 -109 73 -109
103 0 28 139 168 167 168 11 0 44 -22 72 -48z m-276 -172 c7 -6 24 -19 40 -31
15 -11 27 -27 27 -35 0 -8 5 -14 10 -14 14 0 13 -33 -2 -48 -24 -24 -34 -19
-107 46 l-45 39 27 27 c29 29 33 30 50 16z m-60 -120 c8 0 217 -208 217 -216
0 -3 15 -24 33 -47 18 -23 39 -53 45 -67 7 -14 23 -43 37 -65 13 -22 24 -47
25 -56 0 -9 6 -22 14 -28 8 -7 17 -30 21 -52 4 -21 11 -39 15 -39 5 0 12 -17
16 -37 4 -21 10 -42 14 -48 14 -18 30 -177 30 -295 0 -114 -14 -226 -31 -245
-5 -5 -9 -16 -9 -25 0 -35 -34 -51 -91 -44 -30 4 -58 10 -64 14 -5 4 -36 11
-67 14 -32 4 -60 11 -63 16 -3 4 -23 11 -45 15 -22 4 -42 11 -46 16 -3 5 -16
9 -28 9 -57 0 -54 46 15 194 10 21 14 76 14 195 -1 138 -4 171 -18 196 -9 17
-17 35 -17 42 0 11 -30 73 -40 83 -3 3 -11 16 -18 30 -7 14 -19 36 -26 49 -20
33 -148 161 -162 161 -7 0 -22 9 -35 19 l-24 20 117 117 118 118 23 -22 c13
-12 26 -22 30 -22z m481 -21 c45 -47 48 -53 43 -91 -3 -22 -9 -44 -14 -47 -4
-3 -13 -15 -19 -26 -6 -11 -32 -31 -57 -44 -38 -20 -51 -22 -70 -13 -12 6 -33
14 -46 17 -28 9 -61 35 -61 51 0 6 -7 17 -15 24 -45 37 24 163 100 183 48 13
89 -3 139 -54z m21 -269 c12 0 38 -18 59 -39 38 -38 38 -41 34 -100 -5 -67
-21 -92 -76 -118 -31 -15 -35 -15 -52 3 -20 20 -70 111 -70 126 0 6 -9 21 -19
35 -31 38 -1 93 51 93 15 0 28 5 28 12 0 9 3 9 12 0 7 -7 21 -12 33 -12z m77
-337 c10 -9 18 -20 18 -25 0 -5 7 -16 15 -24 8 -9 15 -24 15 -35 0 -10 5 -19
10 -19 6 0 10 -9 10 -20 0 -11 -4 -20 -10 -20 -5 0 -10 -8 -10 -19 0 -25 -45
-71 -70 -71 -41 0 -57 32 -65 129 -8 101 -1 121 43 121 14 0 34 -7 44 -17z
m-20 -374 c24 -10 64 -69 48 -69 -6 0 -10 -13 -10 -28 0 -19 -11 -39 -34 -61
l-34 -33 -22 20 c-19 18 -21 26 -14 83 3 35 13 72 22 82 18 20 15 20 44 6z
m-1815 -186 c8 -25 145 -163 160 -163 7 0 13 -4 13 -10 0 -5 5 -10 11 -10 6 0
22 -9 36 -20 14 -11 33 -20 42 -20 10 0 29 -12 43 -27 24 -26 27 -37 33 -150
4 -68 11 -123 16 -123 5 0 9 -27 9 -60 0 -47 -4 -64 -20 -80 -21 -21 -40 -26
-40 -12 0 5 -24 14 -52 22 -29 7 -67 24 -84 36 -17 13 -36 24 -42 24 -33 0
-195 132 -294 239 -43 46 -58 70 -58 91 0 16 5 32 10 35 6 3 10 14 10 23 -1
19 -100 -84 -100 -103 0 -6 -22 -36 -50 -67 -27 -31 -50 -60 -50 -64 0 -14
-164 -174 -178 -174 -7 0 -17 -11 -22 -25 -7 -19 -17 -25 -40 -25 -16 0 -30 3
-30 7 0 4 88 96 196 204 l197 197 -31 16 c-65 33 -185 59 -281 60 -58 1 -96 6
-98 12 -7 22 227 110 381 145 80 18 195 34 279 38 18 1 30 -5 34 -16z m1299
-34 c5 -4 44 -14 85 -20 40 -7 79 -16 85 -20 6 -5 33 -12 60 -15 27 -3 64 -13
83 -21 29 -13 32 -18 27 -45 -5 -28 -62 -119 -78 -126 -5 -2 -8 -9 -8 -16 0
-7 -9 -21 -20 -31 -19 -17 -23 -16 -125 36 -185 95 -262 143 -270 170 -9 27
21 88 48 99 24 10 95 3 113 -11z m-167 -141 c13 -10 28 -18 33 -18 6 0 27 -13
47 -28 20 -15 57 -38 84 -50 26 -13 47 -27 47 -31 0 -5 14 -11 32 -15 37 -7
98 -51 98 -71 0 -20 -149 -155 -171 -155 -26 0 -35 7 -157 130 -189 190 -187
187 -134 228 58 45 73 47 121 10z m-126 -144 c40 -42 74 -81 76 -86 7 -19 35
-48 47 -48 12 0 114 -104 114 -116 0 -13 -32 -44 -45 -44 -7 0 -18 -6 -24 -14
-6 -7 -29 -16 -52 -20 -22 -3 -42 -13 -45 -21 -7 -17 -34 -21 -34 -5 0 6 -6
10 -14 10 -8 0 -24 12 -35 28 -12 15 -24 32 -29 37 -4 6 -11 17 -15 25 -4 8
-18 33 -31 55 -14 22 -40 69 -57 105 -18 36 -39 72 -46 81 -12 14 -8 21 27 53
60 54 78 50 163 -40z m-505 15 c2 -5 9 -9 15 -9 19 0 47 -32 47 -54 0 -12 6
-33 14 -47 7 -14 16 -43 20 -65 4 -21 13 -48 20 -59 8 -11 17 -36 21 -55 4
-19 14 -45 22 -57 14 -21 13 -26 -2 -49 -16 -25 -19 -26 -114 -22 -130 4 -142
15 -149 128 -2 44 -9 83 -13 86 -5 3 -9 46 -9 96 0 115 11 132 79 122 25 -4
48 -11 49 -15z m241 -5 c18 -9 36 -26 41 -39 5 -13 14 -26 19 -30 6 -3 11 -15
11 -26 0 -10 4 -19 8 -19 5 0 22 -25 38 -55 51 -97 59 -109 82 -142 29 -40 28
-46 -9 -77 -27 -23 -39 -26 -111 -26 -81 0 -118 14 -118 44 0 7 -9 29 -20 51
-11 22 -20 48 -20 60 0 11 -7 29 -15 39 -8 11 -15 32 -15 48 0 15 -4 28 -9 28
-5 0 -12 17 -16 38 -4 20 -12 43 -17 50 -18 21 19 52 63 52 21 0 41 5 44 10 8
13 6 13 44 -6z m-885 -215 c21 -6 55 -26 75 -46 33 -32 36 -38 35 -94 -1 -57
-3 -62 -45 -105 -41 -42 -46 -44 -101 -44 -32 0 -58 4 -58 10 0 6 -5 10 -12
10 -16 0 -58 41 -58 57 0 7 -4 13 -9 13 -12 0 -20 50 -14 84 9 46 94 123 138
125 6 1 27 -4 49 -10z m-253 -45 c23 -24 24 -32 24 -153 0 -79 -4 -133 -11
-142 -6 -8 -14 -37 -17 -66 -3 -29 -12 -62 -20 -75 -8 -13 -18 -38 -22 -55 -4
-18 -10 -33 -15 -33 -4 0 -11 -11 -14 -24 -8 -32 -71 -86 -101 -86 -13 0 -26
-4 -30 -9 -3 -5 -50 -13 -105 -16 -55 -4 -100 -11 -100 -15 0 -5 -44 -11 -97
-15 -54 -3 -106 -10 -115 -15 -21 -12 -278 -14 -278 -2 0 16 568 574 579 568
6 -4 11 -18 11 -32 0 -13 6 -24 13 -24 6 0 47 32 90 70 43 39 82 70 88 70 5 0
14 11 19 24 7 20 47 51 71 55 3 1 16 -11 30 -25z m517 -73 c9 -5 28 -14 42
-20 52 -24 72 -40 86 -66 47 -92 -30 -201 -142 -198 -56 1 -81 19 -124 87 -17
29 -21 45 -15 73 7 39 71 113 98 113 9 0 19 5 22 10 8 12 11 12 33 1z m298
-101 c5 -5 32 -13 58 -16 70 -10 91 -34 91 -106 0 -46 -5 -61 -24 -82 -28 -30
-98 -66 -127 -66 -49 0 -161 137 -134 164 5 5 10 19 10 29 0 11 16 35 36 53
35 34 71 43 90 24z m-551 -140 c21 -11 51 -32 67 -47 24 -23 28 -35 28 -79 0
-48 -3 -56 -45 -98 -41 -43 -48 -46 -95 -46 -37 0 -59 6 -81 23 -50 36 -88
134 -59 152 6 3 10 14 10 24 0 21 25 46 72 71 44 23 57 24 103 0z m362 -142
c34 -34 36 -40 36 -99 -1 -59 -3 -64 -38 -98 -33 -30 -46 -36 -97 -39 l-59 -4
-50 51 c-40 41 -49 58 -49 86 0 19 4 35 9 35 5 0 12 11 15 25 7 26 42 68 66
78 8 4 41 5 73 4 51 -3 62 -7 94 -39z m297 -50 c19 -13 35 -28 36 -34 0 -6 7
-17 15 -24 16 -14 21 -100 6 -100 -5 0 -13 -9 -16 -20 -3 -11 -22 -32 -41 -47
-60 -45 -129 -34 -201 32 -45 40 -20 185 32 185 7 0 15 7 19 15 9 25 107 20
150 -7z m-4169 -133 c43 -8 84 -20 91 -26 12 -10 54 -126 54 -150 0 -19 -28
-7 -61 27 -73 76 -161 107 -259 92 -64 -10 -117 -42 -157 -94 -24 -33 -28 -46
-28 -105 0 -53 5 -74 21 -96 28 -38 74 -68 142 -93 271 -99 325 -133 377 -235
27 -52 30 -68 29 -144 0 -73 -5 -94 -28 -139 -34 -67 -89 -122 -152 -153 -47
-23 -59 -24 -282 -27 l-232 -4 2 174 c3 146 5 173 18 173 11 0 17 -17 22 -63
10 -91 49 -157 113 -190 45 -23 61 -26 170 -26 110 -1 124 1 165 24 24 14 59
44 77 68 30 39 33 50 33 110 0 118 -40 157 -238 232 -170 64 -201 80 -246 130
-57 63 -76 117 -76 216 0 102 23 157 95 223 92 85 192 107 350 76z m2024 4
c98 -17 261 -95 261 -125 0 -11 -94 -104 -105 -104 -3 0 -32 18 -64 40 -101
69 -216 110 -311 110 -66 0 -179 -40 -241 -86 -67 -49 -135 -142 -155 -212
-20 -69 -20 -206 0 -280 14 -53 75 -172 104 -205 15 -17 22 -11 131 96 134
132 256 237 275 237 7 0 21 9 31 20 10 11 24 20 32 20 7 0 13 5 13 10 0 6 8
13 18 17 9 3 40 26 69 50 28 23 55 43 60 43 4 0 36 25 70 55 33 30 65 55 70
55 5 0 20 13 33 30 14 16 29 29 33 30 4 0 20 9 35 19 19 13 53 21 111 25 47 4
90 11 95 16 6 4 45 12 86 15 41 4 80 11 85 15 6 4 31 10 57 13 26 4 56 11 65
16 27 14 131 33 143 26 5 -3 10 -17 10 -31 0 -18 -23 -46 -80 -102 -93 -91
-225 -205 -243 -211 -6 -2 -35 -24 -63 -48 -28 -23 -55 -43 -60 -43 -5 0 -21
-13 -36 -29 -16 -15 -40 -34 -55 -42 -15 -8 -37 -24 -49 -36 -12 -13 -25 -23
-28 -23 -4 0 -27 -16 -50 -35 -24 -19 -46 -35 -50 -35 -4 0 -22 -11 -40 -25
-18 -14 -38 -25 -44 -25 -6 0 -12 -3 -14 -7 -5 -12 -66 -53 -78 -53 -5 0 -10
-5 -10 -10 0 -6 -10 -15 -22 -21 -13 -5 -39 -20 -59 -32 -20 -12 -69 -42 -110
-66 -41 -24 -76 -47 -79 -50 -6 -7 -41 -26 -155 -85 -49 -26 -97 -51 -105 -56
-8 -5 -22 -11 -30 -14 -8 -3 -22 -10 -30 -14 -63 -35 -87 -42 -151 -42 -39 0
-69 4 -69 10 0 6 -16 10 -35 10 -19 0 -35 3 -35 7 0 4 34 42 76 84 l77 77 -42
62 c-59 90 -86 183 -86 300 2 408 350 706 744 639z m1471 -46 l52 -47 -4 -63
c-3 -53 -9 -68 -33 -93 -16 -16 -34 -29 -39 -28 -6 0 -19 -2 -29 -7 -36 -15
-94 2 -133 39 -30 30 -38 45 -42 86 -4 43 -1 55 22 85 30 39 87 72 127 74 19
1 43 -13 79 -46z m-2605 23 c91 -21 128 -40 177 -94 122 -137 73 -370 -92
-441 -63 -27 -132 -41 -245 -48 -50 -3 -93 -10 -98 -17 -4 -6 -6 -113 -5 -238
3 -214 4 -228 23 -242 11 -9 28 -16 38 -16 9 0 17 -7 17 -15 0 -13 -24 -15
-155 -15 -117 0 -155 3 -155 13 0 6 15 19 33 27 l32 15 0 515 0 515 -32 10
c-22 6 -33 15 -33 27 0 17 15 18 218 18 144 -1 237 -5 277 -14z m2855 -85 c0
-5 15 -12 34 -15 18 -4 40 -14 47 -24 64 -79 62 -140 -8 -202 -39 -34 -53 -40
-90 -40 -81 0 -163 91 -148 162 8 34 75 108 99 108 8 0 18 5 21 10 8 12 45 13
45 1z m-612 -53 c7 -7 12 -37 12 -68 0 -52 -3 -59 -40 -95 -39 -38 -44 -40
-100 -39 -66 1 -104 23 -92 52 3 9 39 49 79 89 75 75 111 91 141 61z m1023
-59 c42 -43 49 -56 49 -89 0 -33 -7 -46 -49 -89 -47 -48 -53 -51 -100 -51 -47
0 -55 4 -101 48 -45 43 -50 53 -50 91 0 36 6 49 46 91 48 52 69 61 123 53 24
-3 48 -19 82 -54z m-825 -125 c16 -9 37 -33 47 -54 18 -39 23 -100 8 -100 -5
0 -12 -13 -16 -28 -4 -19 -19 -35 -49 -51 -63 -35 -120 -26 -172 24 -36 36
-39 42 -39 95 0 50 3 59 35 92 19 20 44 38 55 41 32 9 100 -1 131 -19z m-412
-65 c20 -22 41 -52 47 -66 11 -29 3 -83 -12 -83 -5 0 -9 -5 -9 -12 0 -16 -40
-58 -56 -58 -7 0 -14 -6 -17 -12 -5 -16 -89 -16 -108 1 -8 6 -26 20 -41 32
-16 11 -28 27 -28 35 0 8 -4 14 -10 14 -5 0 -10 14 -10 32 0 22 10 42 32 65
18 18 37 33 42 33 6 0 24 14 40 30 44 44 84 41 130 -11z m758 -46 c21 -20 38
-46 38 -58 0 -12 5 -26 12 -33 8 -8 8 -12 1 -12 -6 0 -13 -14 -17 -32 -7 -35
-32 -68 -51 -68 -7 0 -18 -7 -25 -15 -8 -9 -29 -15 -55 -15 -37 0 -50 7 -94
46 -47 43 -51 49 -51 92 0 41 5 53 39 90 38 41 40 42 102 42 59 0 65 -2 101
-37z m339 -49 c22 -22 39 -48 39 -60 0 -13 5 -26 10 -29 7 -4 7 -11 2 -18 -5
-7 -12 -25 -16 -42 -8 -32 -39 -67 -71 -80 -11 -4 -41 -8 -68 -9 -44 -1 -51 2
-93 45 -46 46 -47 48 -42 101 5 58 17 76 78 116 53 34 110 26 161 -24z m-1378
-95 c20 -17 37 -39 37 -49 0 -10 5 -22 10 -25 12 -8 13 -55 1 -55 -5 0 -11
-12 -15 -27 -9 -41 -70 -83 -120 -83 -50 0 -108 27 -121 58 -5 12 -13 22 -17
22 -5 0 -8 15 -8 34 0 26 7 40 33 61 54 45 131 94 147 94 9 1 32 -13 53 -30z
m442 0 c4 -5 17 -14 30 -19 27 -10 58 -69 58 -110 0 -41 -31 -100 -58 -110
-13 -5 -26 -14 -30 -19 -3 -6 -28 -11 -54 -11 -41 0 -53 5 -89 38 -23 22 -42
46 -42 55 0 10 -4 17 -10 17 -5 0 -10 14 -10 30 0 17 5 30 10 30 6 0 10 7 10
17 0 9 19 33 42 55 36 33 48 38 89 38 26 0 51 -5 54 -11z m325 -78 c0 -5 10
-11 23 -15 42 -10 77 -58 84 -115 l6 -52 -52 -49 c-41 -41 -58 -50 -86 -50
-19 0 -43 4 -53 9 -9 5 -25 12 -35 15 -9 3 -21 16 -27 30 -5 13 -14 27 -19 31
-6 3 -11 15 -11 25 0 10 -5 20 -10 22 -14 4 22 77 52 104 44 41 128 70 128 45z
m-1059 -80 c38 -35 1 -104 -78 -148 -45 -26 -113 -5 -113 33 0 14 43 64 55 64
4 0 21 10 38 23 27 19 66 43 75 46 2 1 12 -8 23 -18z m1435 4 c56 -27 86 -69
92 -125 5 -51 4 -52 -48 -101 -59 -56 -98 -63 -160 -31 -38 21 -78 82 -79 122
-2 42 36 103 76 126 46 26 80 29 119 9z m-946 -81 c22 -20 40 -43 40 -50 0 -8
5 -14 10 -14 17 0 11 -69 -7 -97 -29 -44 -59 -73 -76 -73 -9 0 -19 -4 -22 -10
-9 -14 -51 -13 -78 2 -12 7 -39 29 -59 48 -35 31 -38 39 -38 86 0 49 3 54 50
98 43 41 54 46 95 46 38 0 51 -6 85 -36z m340 -84 c0 -5 6 -10 13 -10 27 0 78
-66 84 -108 11 -80 -78 -170 -156 -159 -46 6 -107 49 -116 80 -4 12 -11 32
-18 45 -8 18 -8 28 1 42 7 11 12 26 12 33 0 15 38 54 72 72 28 16 108 19 108
5z m-667 -48 c20 -20 37 -45 37 -57 0 -12 5 -26 12 -33 9 -9 9 -15 0 -24 -7
-7 -12 -19 -12 -27 0 -8 -17 -32 -37 -53 -34 -35 -41 -38 -94 -38 -55 0 -57 1
-104 51 -44 47 -47 54 -43 93 4 32 14 52 42 79 65 65 136 68 199 9z m-390 18
c14 -11 30 -20 35 -20 6 0 20 -19 32 -42 56 -107 -33 -214 -160 -193 -30 5
-49 18 -80 52 -43 49 -48 73 -25 119 15 32 71 88 95 97 33 12 79 6 103 -13z
m1499 -89 c15 -17 28 -39 28 -49 0 -10 5 -23 12 -30 8 -8 8 -15 1 -24 -6 -7
-13 -25 -17 -39 -3 -15 -22 -41 -42 -59 -35 -30 -41 -32 -96 -28 -52 4 -63 9
-96 41 -35 35 -37 41 -37 97 1 54 4 63 34 94 24 25 44 36 70 38 66 6 114 -8
143 -41z m-1780 -38 c26 -23 23 -38 -17 -77 -47 -47 -66 -56 -117 -56 -47 0
-61 7 -71 32 -8 22 17 43 100 84 79 39 81 39 105 17z m1064 -38 c4 -8 11 -15
17 -15 6 0 21 -10 34 -22 19 -18 23 -32 23 -82 0 -56 -3 -63 -37 -98 -20 -21
-44 -38 -53 -38 -9 0 -21 -5 -28 -12 -12 -12 -16 -11 -91 25 -43 21 -66 63
-66 123 0 49 3 58 35 88 43 40 53 44 113 45 34 1 49 -3 53 -14z m-1030 -114
c47 -23 75 -53 99 -104 13 -29 15 -41 6 -50 -6 -6 -11 -18 -11 -27 0 -17 -39
-56 -77 -77 -13 -7 -43 -13 -69 -13 -40 0 -51 5 -90 43 -41 39 -44 45 -44 96
0 51 3 56 42 93 23 21 49 38 59 38 10 0 21 5 24 10 9 14 16 13 61 -9z m319 9
c3 -5 14 -10 25 -10 10 0 39 -23 64 -51 36 -40 46 -59 46 -85 0 -19 -4 -34
-10 -34 -5 0 -10 -5 -10 -12 0 -16 -51 -68 -67 -68 -7 0 -13 -4 -13 -10 0 -5
-24 -10 -54 -10 -50 0 -58 3 -95 40 -46 45 -56 74 -47 125 9 46 69 105 108
105 15 0 28 5 28 10 0 6 4 10 9 10 6 0 13 -4 16 -10z m407 -13 c30 -25 68 -89
68 -115 0 -10 -9 -37 -20 -60 -17 -34 -32 -48 -77 -69 -45 -22 -59 -24 -74
-15 -10 7 -25 12 -32 12 -7 0 -30 18 -51 39 -34 35 -38 44 -38 91 0 45 4 56
33 86 18 19 39 34 46 34 7 0 13 5 13 10 0 6 24 10 53 10 39 0 59 -6 79 -23z
m678 13 c0 -5 9 -10 19 -10 11 0 26 -7 35 -15 8 -8 20 -15 26 -15 6 0 15 -11
20 -25 5 -14 14 -25 20 -25 5 0 10 -20 10 -45 0 -41 -5 -52 -46 -95 -45 -48
-49 -50 -99 -50 -47 0 -57 4 -99 41 -44 39 -46 43 -46 96 0 50 3 58 36 89 19
19 48 37 65 41 16 3 32 10 35 14 7 12 24 11 24 -1z m-2043 -27 c5 -11 -5 -27
-32 -50 -21 -18 -43 -33 -49 -33 -6 -1 -29 -9 -51 -20 -22 -10 -42 -16 -45
-14 -2 3 25 34 62 70 67 65 103 80 115 47z m353 -18 c16 -16 27 -32 24 -36 -2
-4 0 -10 6 -14 16 -10 12 -91 -5 -105 -8 -7 -15 -18 -15 -25 0 -24 -68 -55
-121 -55 -45 0 -53 4 -94 45 -40 39 -45 50 -45 88 0 49 21 75 93 114 57 31
118 26 157 -12z m-320 -95 c29 -29 26 -39 -27 -92 -46 -47 -49 -48 -109 -48
-57 0 -62 2 -73 28 -12 25 -11 29 24 58 20 18 51 35 69 38 18 3 41 13 52 21
26 20 40 19 64 -5z m1795 -63 c49 -43 49 -44 50 -105 0 -58 -2 -63 -40 -101
-35 -37 -44 -41 -90 -41 -57 0 -95 16 -110 45 -5 11 -20 35 -32 52 -24 32 -31
73 -13 73 6 0 10 5 10 12 0 16 71 88 87 88 7 0 13 5 13 10 0 6 17 10 38 10 30
0 47 -9 87 -43z m-741 -96 c3 -5 21 -12 39 -15 33 -6 61 -31 84 -75 15 -28 17
-101 3 -101 -5 0 -10 -5 -10 -12 0 -7 -14 -27 -32 -45 -29 -30 -38 -33 -88
-33 -49 0 -60 4 -83 28 -26 27 -28 36 -30 118 l-2 89 50 26 c58 31 62 32 69
20z m407 -12 c32 -23 69 -90 69 -126 0 -30 -89 -123 -118 -123 -11 0 -23 -4
-27 -9 -3 -6 -17 -4 -33 5 -15 7 -31 14 -36 14 -15 0 -56 42 -56 57 0 7 -4 13
-10 13 -5 0 -10 23 -10 52 0 48 4 56 42 95 39 40 46 43 96 43 39 0 62 -6 83
-21z m-1549 -26 c10 -9 18 -22 18 -30 0 -7 4 -13 9 -13 35 0 41 -300 7 -375
-47 -107 -66 -135 -131 -202 -79 -83 -108 -92 -144 -47 -12 15 -21 32 -21 40
0 7 -5 14 -11 16 -8 3 -11 50 -11 148 0 127 3 150 21 187 12 23 21 47 21 54 0
7 11 27 25 45 14 18 25 37 25 43 0 17 139 151 157 151 9 0 25 -7 35 -17z m430
0 c10 -9 18 -20 18 -26 0 -5 14 -26 30 -47 17 -21 30 -42 30 -48 0 -5 9 -29
20 -53 29 -65 28 -248 -2 -333 -12 -34 -27 -68 -35 -77 -7 -8 -13 -19 -13 -23
0 -5 -14 -26 -31 -47 -22 -27 -38 -39 -57 -39 -28 0 -72 35 -72 57 0 8 -6 16
-14 19 -8 3 -17 17 -21 32 -4 15 -11 30 -17 33 -5 3 -12 26 -15 50 -3 24 -10
50 -16 57 -14 17 -13 200 2 215 6 6 11 25 11 43 0 17 7 37 15 44 8 7 15 21 15
32 0 10 7 21 15 24 8 4 15 11 15 16 0 5 12 27 28 49 30 43 63 51 94 22z m501
0 c8 -10 19 -31 23 -48 4 -16 12 -36 18 -44 18 -23 12 -260 -8 -296 -9 -16
-16 -35 -16 -41 0 -30 -53 -112 -118 -183 -64 -70 -78 -81 -107 -81 -40 0 -66
33 -73 97 -2 24 -9 43 -13 43 -12 0 -12 187 0 194 4 3 11 26 14 52 2 26 9 49
14 53 6 3 13 19 17 35 4 17 21 46 37 67 16 20 29 40 29 44 0 4 26 34 58 66 61
62 96 74 125 42z m-2489 -97 c-9 -62 13 -196 46 -287 15 -42 51 -111 80 -153
54 -82 101 -181 120 -259 7 -26 16 -47 20 -47 4 0 15 33 24 73 18 79 29 103
43 94 6 -4 27 -35 48 -71 33 -57 40 -63 56 -53 26 16 32 4 25 -46 -10 -65 -55
-105 -125 -111 l-54 -4 -191 -191 c-105 -105 -196 -191 -202 -191 -16 0 -81
204 -99 310 -19 118 -19 345 -1 465 26 171 78 326 148 448 46 80 71 89 62 23z
m1143 -33 c4 -10 11 -21 16 -24 5 -4 12 -36 14 -73 3 -37 10 -69 14 -72 12 -7
11 -84 -1 -84 -5 0 -10 -23 -10 -51 0 -30 -8 -69 -19 -93 -11 -23 -22 -48 -26
-56 -24 -59 -71 -110 -101 -110 -32 0 -54 10 -54 25 0 7 -6 18 -14 24 -12 10
-53 88 -77 146 -4 11 -11 44 -14 73 l-7 53 128 130 c70 71 132 129 136 129 5
0 12 -8 15 -17z m-347 -342 c0 -11 -4 -23 -10 -26 -5 -3 -10 -20 -10 -36 0
-45 -21 -122 -38 -141 -8 -10 -25 -18 -37 -18 -29 0 -85 28 -92 47 -4 10 25
46 83 104 49 49 92 89 96 89 5 0 8 -9 8 -19z m910 -328 c22 -20 40 -40 40 -45
0 -5 11 -24 24 -41 14 -18 29 -52 35 -76 5 -24 14 -48 20 -54 7 -7 11 -57 11
-127 0 -103 -2 -119 -19 -134 -14 -13 -28 -16 -50 -11 -37 8 -53 26 -93 105
-7 14 -18 31 -25 38 -7 7 -13 24 -13 37 0 13 -4 26 -9 30 -6 3 -13 26 -17 50
-3 25 -10 48 -15 51 -5 3 -9 33 -9 68 0 57 3 66 36 104 19 23 38 42 40 42 3 0
23 -16 44 -37z m553 16 c21 -19 22 -28 21 -154 -1 -117 -4 -138 -23 -168 -11
-19 -21 -41 -21 -49 0 -8 -13 -27 -30 -43 -16 -16 -30 -34 -30 -40 0 -17 -31
-42 -61 -50 -23 -6 -29 -2 -43 26 -12 25 -15 50 -10 118 7 106 22 191 35 191
5 0 9 9 9 19 0 11 7 26 15 35 8 8 15 19 15 24 0 10 88 112 96 112 3 0 15 -9
27 -21z m-1479 -20 c14 -11 26 -26 26 -34 0 -7 7 -15 15 -19 8 -3 15 -11 15
-18 0 -7 9 -24 20 -38 11 -14 20 -37 20 -52 0 -14 5 -28 11 -30 7 -2 13 -46
16 -118 4 -121 -5 -161 -39 -168 -16 -3 -88 60 -88 77 0 5 -7 14 -15 21 -8 7
-20 31 -27 54 -6 22 -15 46 -19 51 -4 6 -10 31 -14 58 -4 26 -11 50 -16 53
-12 7 -11 91 1 99 6 3 10 17 10 30 0 21 32 55 51 55 3 0 18 -9 33 -21z m271
13 c21 -15 45 -62 51 -102 4 -22 11 -43 15 -46 12 -7 12 -171 0 -178 -4 -3
-11 -28 -15 -56 -4 -27 -11 -50 -16 -50 -6 0 -10 -5 -10 -12 0 -20 -32 -48
-55 -48 -27 0 -40 14 -49 55 -4 16 -13 33 -19 37 -8 5 -13 55 -15 147 -4 129
-2 143 17 174 12 19 21 41 21 49 0 31 48 50 75 30z m297 -9 c15 -14 18 -32 18
-124 0 -61 -4 -110 -10 -114 -5 -3 -10 -13 -10 -21 0 -27 -54 -128 -94 -176
-40 -49 -70 -60 -94 -36 -15 15 -17 224 -2 233 6 3 10 16 10 28 1 12 9 40 20
62 11 22 19 44 20 49 0 10 68 97 85 108 17 12 37 9 57 -9z m635 -5 c11 -13 24
-34 28 -48 3 -14 14 -41 22 -59 13 -28 15 -56 9 -140 -3 -58 -11 -110 -16
-115 -6 -6 -10 -18 -10 -28 0 -21 -57 -88 -74 -88 -25 0 -54 47 -66 105 -6 33
-16 68 -21 77 -11 22 -12 175 0 182 4 3 14 27 21 53 22 83 65 107 107 61z
m-849 -529 c15 -28 7 -133 -13 -164 -6 -11 -15 -51 -20 -90 -4 -38 -11 -74
-15 -80 -10 -13 -30 -142 -30 -197 0 -24 -5 -49 -12 -56 -16 -16 -18 -363 -1
-383 6 -8 13 -32 15 -54 l3 -40 47 -1 c26 -1 59 -9 72 -18 35 -22 88 -20 133
6 21 12 50 28 66 35 15 8 27 19 27 24 0 5 8 9 18 9 9 0 31 8 47 17 22 12 65
17 161 21 120 4 135 2 185 -19 30 -13 69 -38 86 -56 29 -29 39 -33 88 -33 30
0 55 -4 55 -10 0 -5 6 -10 14 -10 7 0 30 -18 50 -40 30 -33 36 -48 36 -83 0
-31 -6 -49 -19 -61 -18 -17 -22 -17 -52 -2 -50 25 -74 20 -106 -21 -17 -21
-33 -46 -36 -55 -4 -10 -12 -18 -18 -18 -6 0 -27 -13 -46 -30 -18 -16 -42 -30
-52 -30 -10 0 -24 -7 -31 -15 -10 -12 -42 -15 -166 -15 -84 0 -155 4 -158 9
-7 10 -78 45 -114 56 -51 15 -127 7 -179 -20 -29 -14 -55 -30 -58 -35 -4 -6
-82 -10 -189 -10 -151 0 -186 3 -196 15 -7 8 -20 15 -29 15 -9 0 -26 6 -37 14
-11 8 -38 18 -60 21 -21 4 -45 12 -52 18 -9 7 -16 7 -20 0 -4 -5 -29 -13 -57
-17 -27 -3 -54 -11 -59 -16 -6 -6 -17 -10 -27 -10 -9 0 -28 -9 -42 -20 -23
-18 -40 -20 -188 -20 -137 0 -165 3 -181 17 -10 9 -28 21 -41 27 -12 7 -30 28
-39 48 -23 48 -78 60 -137 30 -37 -20 -40 -20 -55 -3 -26 28 -21 96 10 136 39
52 86 75 150 75 46 0 62 5 92 29 39 30 113 51 183 51 49 0 129 -19 129 -31 0
-5 6 -9 14 -9 7 0 25 -9 39 -20 14 -11 39 -20 55 -20 17 0 34 -4 37 -10 3 -5
19 -10 35 -10 32 0 100 56 100 82 0 9 7 21 15 28 8 7 15 23 15 36 0 12 4 25 9
28 5 3 12 23 16 43 4 21 11 40 15 43 5 3 14 37 20 75 6 38 15 74 20 80 4 5 11
42 15 80 4 39 12 75 17 82 5 7 12 50 15 95 3 46 9 85 13 88 10 7 30 174 30
248 0 35 4 62 10 62 6 0 10 15 10 33 0 60 55 85 90 42 17 -21 43 -19 58 5 7
11 23 20 36 20 12 0 31 -9 41 -20 24 -27 37 -25 75 10 37 34 49 34 68 -1z
m945 -33 c32 -36 53 -68 47 -71 -12 -7 -14 -192 -2 -199 5 -3 12 -76 15 -162
3 -87 10 -160 15 -163 5 -3 15 -41 22 -84 7 -43 17 -80 21 -83 5 -3 9 -12 9
-20 0 -8 9 -36 21 -62 42 -97 37 -92 99 -92 31 0 60 -4 66 -9 13 -12 97 -31
139 -31 20 0 49 8 63 18 98 64 163 93 220 99 29 3 55 10 58 14 7 12 141 11
149 -1 3 -5 21 -10 39 -10 48 0 96 -23 135 -64 32 -33 40 -36 89 -36 51 0 57
-3 99 -44 41 -42 44 -48 41 -92 -4 -55 -25 -77 -58 -56 -29 18 -74 15 -96 -8
-29 -29 -44 -48 -44 -57 0 -12 -53 -63 -67 -63 -7 0 -13 -4 -13 -10 0 -5 -17
-12 -37 -16 -21 -4 -43 -11 -49 -16 -18 -13 -170 -28 -222 -21 -26 3 -58 11
-72 18 -14 7 -43 21 -64 31 -55 26 -215 27 -243 2 -11 -10 -28 -18 -39 -18
-11 0 -25 -5 -30 -10 -14 -14 -152 -29 -184 -20 -25 7 -25 8 -22 94 3 67 0 92
-12 111 -9 13 -16 30 -16 38 0 29 -48 60 -102 65 -52 5 -102 29 -161 78 -16
13 -37 24 -47 24 -37 0 -43 24 -39 158 5 185 -2 535 -11 547 -4 6 -11 45 -15
89 l-7 78 48 49 c50 51 80 61 91 32 16 -41 28 -41 63 -2 19 21 38 39 41 39 3
0 31 -29 62 -64z m-3053 -861 c-13 -14 -25 -23 -27 -21 -6 6 30 46 41 46 5 0
-1 -11 -14 -25z"/>
<path d="M7866 7864 c-16 -19 -27 -36 -25 -37 40 -22 51 -27 62 -27 20 0 131
-121 152 -165 10 -22 22 -48 26 -57 12 -25 11 -158 -1 -158 -5 0 -10 -7 -10
-16 0 -58 -97 -183 -165 -213 -16 -7 -42 -20 -57 -27 -14 -8 -41 -14 -60 -14
-19 0 -39 -5 -46 -12 -8 -8 -15 -8 -24 -1 -7 6 -35 13 -62 16 -27 2 -51 9 -55
15 -3 5 -20 12 -37 16 -46 10 -148 118 -170 179 -6 16 -11 14 -44 -18 -33 -33
-36 -39 -26 -61 6 -13 14 -24 19 -24 4 0 7 -6 7 -13 0 -16 91 -107 108 -107 7
0 12 -4 12 -10 0 -5 6 -10 14 -10 7 0 19 -6 25 -14 7 -8 31 -18 54 -21 23 -4
52 -14 64 -22 18 -12 44 -14 112 -11 49 2 95 9 103 15 7 6 30 13 51 17 20 4
37 10 37 14 0 4 12 13 28 20 61 27 122 75 122 95 0 6 6 18 14 26 43 48 76 132
82 208 6 76 -8 201 -23 212 -5 3 -17 24 -27 46 -20 40 -113 145 -129 145 -5 0
-21 8 -35 19 -48 33 -64 32 -96 -5z"/>
<path d="M4126 5814 c-14 -14 -16 -44 -14 -242 l3 -227 65 -3 c189 -10 280 65
280 229 0 61 -5 85 -26 127 -41 83 -98 114 -230 127 -49 5 -65 2 -78 -11z"/>
</g>
</svg>
